# xmcd
#
# Track frame offsets:
#	150
#	14625
#	28642
#	42204
#	54208
#	67921
#	82244
#	96502
#	109433
#	122377
#	135066
#	148932
#	163505
#	177474
#	190248
#	204783
#	219177
#	231504
#
# Disc length: 3285 seconds
#
# Revision: 0
# Processed by: cddbd v1.4PL0 Copyright (c) Steve Scherf et al.
# Submitted via: dBpowerAMP V4.0
#
DISCID=fa0cd312
DTITLE=Ma Rainey - The Essential Ma Rainey CD 2
DYEAR=2001
DGENRE=Acoustic Blues
TTITLE0=Jealous Hearted Blues
TTITLE1=Bad Luck Blues
TTITLE2=Army Camp Harmony Blues
TTITLE3=Hustlin' Blues
TTITLE4=Deep Moaning Blues
TTITLE5=Booze And Blues
TTITLE6=Jelly Bean Blues
TTITLE7=Memphis Bound Blues
TTITLE8=Don't Fish In My Sea
TTITLE9=Big Feeling Blues
TTITLE10=Toad Frog Blues
TTITLE11=Blues The World Forgot-Part 1
TTITLE12=Blues The World Forgot-Part 2
TTITLE13=Oh Papa Blues
TTITLE14=Sleep Talking Blues
TTITLE15=Leaving This Morning
TTITLE16=Prove It On Me Blues
TTITLE17=Four Day Honory Scat
EXTD=william hale
EXTT0=
EXTT1=
EXTT2=
EXTT3=
EXTT4=
EXTT5=
EXTT6=
EXTT7=
EXTT8=
EXTT9=
EXTT10=
EXTT11=
EXTT12=
EXTT13=
EXTT14=
EXTT15=
EXTT16=
EXTT17=
PLAYORDER=
